<svg xmlns="http://www.w3.org/2000/svg" width="15" height="15" viewBox="0 0 15 15">
    <path fill="#FFF" fill-rule="nonzero" d="M14.676 13.64l-3.451-3.465a5.519 5.519 0 0 0 1.373-3.634C12.598 3.425 9.972.89 6.744.89 3.515.889.889 3.425.889 6.54c0 3.117 2.626 5.653 5.855 5.653a5.936 5.936 0 0 0 3.354-1.023l3.477 3.492c.146.146.341.226.55.226a.774.774 0 0 0 .53-.206.72.72 0 0 0 .021-1.042zM6.722 2.445A4.283 4.283 0 0 1 11 6.722 4.283 4.283 0 0 1 6.722 11a4.283 4.283 0 0 1-4.278-4.278 4.283 4.283 0 0 1 4.278-4.278z"/>
</svg>
